Coordinates
version=1
nRows=16
nColumns=22
inDegrees=yes

Units are S.I. units (second, meters, Newtons, ...)
If the header above contains a line with 'inDegrees', this indicates whether rotational values are in degrees (yes) or radians (no).

endheader
time	pelvis_tilt	pelvis_list	pelvis_rotation	pelvis_tx	pelvis_ty	pelvis_tz	hip_flexion_r	hip_adduction_r	hip_rotation_r	knee_angle_r	ankle_angle_r	subtalar_angle_r	hip_flexion_l	hip_adduction_l	hip_rotation_l	knee_angle_l	ankle_angle_l	subtalar_angle_l	lumbar_extension	lumbar_bending	lumbar_rotation
      1.37000000	     -3.38099106	     -3.16382551	     -2.80962141	     -1.12434946	      0.94991216	      0.39785737	      9.49548722	      5.36368953	     -2.32192015	    -21.64808460	     16.82920997	     -3.01315387	     10.06968758	     -7.41934850	     -7.92798720	    -25.18213533	     14.77387673	     -3.76456936	     -5.05099120	      1.92479025	     -1.04083099
      1.38000000	     -3.32661572	     -3.40443230	     -2.92813007	     -1.12300655	      0.94948507	      0.39965300	      9.27636624	      5.74003730	     -2.15120854	    -21.56422102	     16.85808287	     -3.03977104	     10.40300497	     -7.82187044	     -7.66987059	    -26.10166880	     14.91766045	     -3.52624250	     -5.18915235	      2.21768260	     -0.90598363
      1.39000000	     -3.26033530	     -3.66176717	     -3.05413008	     -1.12166505	      0.94904050	      0.40146755	      9.03299400	      6.12711059	     -2.00151044	    -21.46020285	     16.91441607	     -3.04087733	     10.83143248	     -8.24563849	     -7.36212321	    -27.21297402	     14.99992912	     -3.30056878	     -5.35310916	      2.52845172	     -0.74228952
      1.40000000	     -3.18338200	     -3.93464054	     -3.18081418	     -1.12034149	      0.94859729	      0.40327885	      8.77465630	      6.52288170	     -1.88144482	    -21.34888955	     16.95968722	     -3.01253342	     11.36812897	     -8.68545980	     -6.99488719	    -28.53068900	     14.99921625	     -3.07497031	     -5.54424111	      2.85680951	     -0.55649802
      1.41000000	     -3.13161064	     -4.20335249	     -3.30438948	     -1.11905713	      0.94812152	      0.40505391	      8.55149939	      6.90207478	     -1.82407945	    -21.24565778	     17.02303443	     -2.94500600	     12.06124639	     -9.11357944	     -6.55220998	    -30.06103596	     14.88596235	     -2.76620831	     -5.71934207	      3.18313097	     -0.33893673
      1.42000000	     -3.05293095	     -4.46710741	     -3.43320212	     -1.11779667	      0.94772591	      0.40681061	      8.28765622	      7.27185247	     -1.76484955	    -21.11885800	     17.04889701	     -2.83992185	     12.84449654	     -9.53062122	     -6.08436200	    -31.78656858	     14.61966789	     -2.54964850	     -5.94283434	      3.50189453	     -0.11015514
      1.43000000	     -2.97207046	     -4.71476566	     -3.56790410	     -1.11654969	      0.94739827	      0.40852771	      8.00864902	      7.61816756	     -1.72396279	    -20.96577081	     17.05189798	     -2.71082463	     13.73964929	     -9.91866789	     -5.58785321	    -33.69168403	     14.17149586	     -2.38820758	     -6.18081898	      3.80124343	      0.15062179
      1.44000000	     -2.89982397	     -4.92941374	     -3.70823163	     -1.11532682	      0.94712499	      0.41019867	      7.73540294	      7.92579045	     -1.68833222	    -20.80335436	     17.05329516	     -2.55430179	     14.75931542	    -10.25988957	     -5.08305040	    -35.76568276	     13.51684284	     -2.27890028	     -6.42119990	      4.06192761	      0.42693763
      1.45000000	     -2.82308637	     -5.11303238	     -3.85870412	     -1.11407935	      0.94694890	      0.41180856	      7.43996205	      8.19689654	     -1.64170915	    -20.61275864	     17.03454842	     -2.38929341	     15.86310216	    -10.55535841	     -4.60095272	    -37.95798321	     12.66105665	     -2.25756210	     -6.67389863	      4.28883079	      0.73064837
      1.46000000	     -2.73935324	     -5.26097553	     -4.02446656	     -1.11278245	      0.94686852	      0.41336370	      7.12132779	      8.42688864	     -1.57559689	    -20.39929097	     17.00814191	     -2.22726451	     17.02795883	    -10.80451894	     -4.17195894	    -40.22520718	     11.62862413	     -2.33253497	     -6.93800886	      4.47309382	      1.06679036
      1.47000000	     -2.64167395	     -5.37738625	     -4.21101161	     -1.11139922	      0.94689400	      0.41486594	      6.76719735	      8.61860359	     -1.48824307	    -20.15761071	     16.97774306	     -2.08076696	     18.21967809	    -11.02317250	     -3.84055736	    -42.51459774	     10.47565760	     -2.49097208	     -7.21759345	      4.62032493	      1.44059242
      1.48000000	     -2.54565450	     -5.45079476	     -4.42215018	     -1.10993608	      0.94698999	      0.41630951	      6.40361933	      8.75931463	     -1.36306560	    -19.90235465	     16.95766055	     -1.92999186	     19.43075338	    -11.20090630	     -3.61070497	    -44.76838737	      9.24939400	     -2.75410486	     -7.49422510	      4.71630803	      1.84638028
      1.49000000	     -2.43338112	     -5.49244908	     -4.66455413	     -1.10836604	      0.94717315	      0.41771205	      6.00820997	      8.85861963	     -1.20239896	    -19.63035793	     16.93896127	     -1.78445602	     20.61308858	    -11.36475244	     -3.51865813	    -46.93275365	      8.06027271	     -3.05529649	     -7.78593507	      4.77316544	      2.28533230
      1.50000000	     -2.31175486	     -5.49701912	     -4.93861919	     -1.10668753	      0.94742531	      0.41906688	      5.59109251	      8.90893397	     -1.00304546	    -19.34527233	     16.93372126	     -1.63268010	     21.75089970	    -11.50992614	     -3.55764304	    -48.95495015	      6.97872623	     -3.35442082	     -8.08485699	      4.78361724	      2.75690575
      1.51000000	     -2.19283331	     -5.46046808	     -5.23825571	     -1.10488826	      0.94771350	      0.42036830	      5.16512487	      8.90300239	     -0.78673696	    -19.04389625	     16.96370832	     -1.45777542	     22.83917705	    -11.63483342	     -3.72604734	    -50.79000323	      6.08023265	     -3.64011813	     -8.37108786	      4.74438588	      3.24432914
      1.52000000	     -2.06614750	     -5.38507120	     -5.55283120	     -1.10296602	      0.94806053	      0.42158978	      4.71217410	      8.84403883	     -0.53103620	    -18.71556271	     16.98232677	     -1.28979686	     23.85272134	    -11.72837379	     -3.99181142	    -52.39948030	      5.40989551	     -3.80327162	     -8.65655951	      4.66194978	      3.73429904
